<svg width="111" height="58" viewBox="0 0 111 58" fill="none" xmlns="http://www.w3.org/2000/svg">
<path d="M0.783973 36.8757C1.97864 38.0891 3.18264 38.8264 4.39597 39.0877C5.60931 39.3491 6.82264 39.2371 8.03597 38.7517C7.38264 37.9491 6.81331 37.1184 6.32797 36.2597C5.84264 35.3824 5.45997 34.4957 5.17997 33.5997C5.10531 33.4317 5.05864 33.2637 5.03997 33.0957C5.03997 32.9091 5.06797 32.7971 5.12397 32.7597C5.17997 32.7411 5.25464 32.7971 5.34797 32.9277C5.44131 33.0584 5.50664 33.1891 5.54397 33.3197C5.86131 34.0104 6.31864 34.7851 6.91597 35.6437C7.51331 36.5024 8.26931 37.3517 9.18397 38.1917C10.416 37.5011 11.6293 36.5397 12.824 35.3077C14.0373 34.0571 15.232 32.6384 16.408 31.0517C14.7466 30.3797 13.16 29.5491 11.648 28.5597C10.136 27.5704 8.81997 26.4224 7.69997 25.1157C6.57997 23.8091 5.70264 22.3437 5.06797 20.7197C4.43331 19.0957 4.16264 17.3131 4.25597 15.3717C4.33064 14.0091 4.62931 12.7397 5.15197 11.5638C5.69331 10.3691 6.41197 9.33308 7.30797 8.45575C8.20397 7.57841 9.25864 6.89708 10.472 6.41175C11.704 5.92642 13.048 5.69308 14.504 5.71175C15.848 5.74908 16.996 5.89842 17.948 6.15975C18.9 6.40241 19.7213 6.74775 20.412 7.19575C21.1026 7.62508 21.6906 8.13842 22.176 8.73575C22.68 9.33308 23.128 9.98642 23.52 10.6957C24.0426 9.48242 24.6586 8.25975 25.368 7.02775C26.0773 5.79575 26.936 4.68508 27.944 3.69575C28.952 2.68775 30.1466 1.85708 31.528 1.20375C32.9093 0.531749 34.5426 0.16775 36.428 0.111749C38.5186 0.0370812 40.3106 0.40108 41.804 1.20375C43.2973 1.98775 44.52 3.07042 45.472 4.45175C46.4426 5.81441 47.152 7.41041 47.6 9.23975C48.048 11.0691 48.2906 12.9917 48.328 15.0077C48.3466 17.0237 48.1226 19.1424 47.656 21.3637C47.1893 23.5851 46.4706 25.7877 45.5 27.9717C44.5293 30.1557 43.288 32.2464 41.776 34.2437C40.2826 36.2224 38.5186 37.9677 36.484 39.4797C34.468 40.9918 32.172 42.2051 29.596 43.1198C27.02 44.0344 24.164 44.5104 21.028 44.5478C19.068 44.5664 17.276 44.3144 15.652 43.7918C14.0466 43.2878 12.6 42.5878 11.312 41.6917C10.4906 42.1958 9.65997 42.5691 8.81997 42.8118C7.99864 43.0544 7.14931 43.1291 6.27197 43.0358C5.22664 42.9611 4.33064 42.7184 3.58397 42.3078C2.83731 41.8971 2.21197 41.4118 1.70797 40.8518C1.22264 40.3104 0.849306 39.7504 0.587973 39.1717C0.326639 38.5744 0.158639 38.0611 0.0839727 37.6317C0.0279727 37.1837 0.065306 36.8757 0.195973 36.7077C0.326639 36.5397 0.522639 36.5957 0.783973 36.8757ZM36.204 3.55575C34.86 3.59308 33.6653 3.82642 32.62 4.25575C31.5746 4.66642 30.6413 5.20775 29.82 5.87975C29.0173 6.53308 28.2986 7.28908 27.664 8.14775C27.048 8.98775 26.4973 9.84642 26.012 10.7237C25.5453 11.6011 25.116 12.4691 24.724 13.3277C24.332 14.1864 23.968 14.9611 23.632 15.6517C23.4826 14.3824 23.072 13.2904 22.4 12.3757C21.7466 11.4611 20.9533 10.7237 20.02 10.1637C19.0866 9.60375 18.0786 9.23042 16.996 9.04375C15.9133 8.83842 14.8866 8.81975 13.916 8.98775C13.2626 9.09975 12.628 9.36108 12.012 9.77175C11.4146 10.1637 10.8733 10.6491 10.388 11.2277C9.92131 11.8064 9.52931 12.4411 9.21197 13.1317C8.91331 13.8037 8.73597 14.4757 8.67997 15.1477C8.51197 16.8277 8.63331 18.3771 9.04397 19.7957C9.47331 21.2144 10.0986 22.5117 10.92 23.6877C11.76 24.8637 12.7586 25.9184 13.916 26.8517C15.092 27.7851 16.352 28.5971 17.696 29.2877C18.76 27.7757 19.8146 26.1891 20.86 24.5277C21.9053 22.8664 22.932 21.2331 23.94 19.6277C24.948 18.0037 25.9373 16.4544 26.908 14.9797C27.8786 13.4864 28.8213 12.1517 29.736 10.9757C30.6506 9.79975 31.5373 8.81975 32.396 8.03575C33.2546 7.23308 34.0853 6.71975 34.888 6.49575C35.3173 6.38375 35.7093 6.31842 36.064 6.29975C36.4373 6.28108 36.6986 6.31842 36.848 6.41175C36.9973 6.48642 37.0066 6.59842 36.876 6.74775C36.7453 6.89708 36.4 7.08375 35.84 7.30775C35.112 7.58775 34.3653 8.13841 33.6 8.95975C32.8346 9.76242 32.0506 10.7611 31.248 11.9557C30.4453 13.1504 29.624 14.4944 28.784 15.9877C27.944 17.4624 27.0853 19.0211 26.208 20.6637C25.3306 22.3064 24.4253 23.9771 23.492 25.6757C22.5773 27.3744 21.6346 29.0264 20.664 30.6317C22.5306 31.3224 24.3786 31.8171 26.208 32.1157C28.0373 32.4144 29.708 32.5171 31.22 32.4237C29.764 32.9277 28.0186 33.1611 25.984 33.1237C23.968 33.0677 21.8773 32.7504 19.712 32.1717C18.6106 33.9264 17.4813 35.5317 16.324 36.9877C15.1853 38.4437 14 39.6664 12.768 40.6558C13.888 41.2344 15.12 41.7011 16.464 42.0558C17.8266 42.4104 19.348 42.5878 21.028 42.5878C23.548 42.5878 25.8813 42.1771 28.028 41.3558C30.1746 40.5344 32.1066 39.4331 33.824 38.0517C35.56 36.6517 37.0813 35.0371 38.388 33.2077C39.7133 31.3784 40.8053 29.4557 41.664 27.4397C42.5226 25.4051 43.148 23.3424 43.54 21.2517C43.9506 19.1611 44.1186 17.1544 44.044 15.2317C43.9693 13.6264 43.7453 12.1051 43.372 10.6677C42.9986 9.23041 42.4853 7.97975 41.832 6.91575C41.1786 5.85175 40.376 5.02108 39.424 4.42375C38.4906 3.80775 37.4173 3.51841 36.204 3.55575ZM50.0495 33.1517C50.0122 33.2451 49.9935 33.3011 49.9935 33.3197C51.8975 32.7784 53.6522 31.9291 55.2575 30.7717C56.8815 29.6144 58.2255 28.1397 59.2895 26.3477C59.4949 26.0117 59.6349 25.7037 59.7095 25.4237C59.7842 25.1251 59.7842 24.8731 59.7095 24.6677C59.6535 24.4437 59.5229 24.2851 59.3175 24.1917C59.1309 24.0984 58.8789 24.0797 58.5615 24.1357C57.8895 24.2664 57.2362 24.5091 56.6015 24.8637C55.9669 25.2184 55.3602 25.6477 54.7815 26.1517C54.2029 26.6557 53.6615 27.2157 53.1575 27.8317C52.6535 28.4477 52.1962 29.0731 51.7855 29.7077C51.3749 30.3237 51.0202 30.9304 50.7215 31.5277C50.4415 32.1251 50.2175 32.6664 50.0495 33.1517ZM45.8215 35.3077C45.9149 33.9824 46.2695 32.6664 46.8855 31.3597C47.5015 30.0531 48.4535 28.6344 49.7415 27.1037C50.1522 26.6184 50.6935 26.0957 51.3655 25.5357C52.0375 24.9571 52.7749 24.4344 53.5775 23.9677C54.3989 23.4824 55.2575 23.0904 56.1535 22.7917C57.0495 22.4744 57.9269 22.3251 58.7855 22.3438C59.3269 22.3624 59.7842 22.5024 60.1575 22.7637C60.5495 23.0064 60.8109 23.3424 60.9415 23.7717C61.0909 24.1824 61.1002 24.6771 60.9695 25.2557C60.8389 25.8157 60.5309 26.4131 60.0455 27.0477C58.8509 28.9517 57.3575 30.5197 55.5655 31.7517C53.7735 32.9837 51.8322 33.8891 49.7415 34.4677L49.6855 34.5517C49.6109 34.9811 49.5735 35.4197 49.5735 35.8677C49.5735 36.2971 49.6295 36.7077 49.7415 37.0997C49.8722 37.4731 50.0682 37.7904 50.3295 38.0517C50.5909 38.3131 50.9549 38.4811 51.4215 38.5557C51.9255 38.6304 52.5415 38.5277 53.2695 38.2477C54.0162 37.9677 54.8002 37.5571 55.6215 37.0157C56.4429 36.4744 57.2642 35.8304 58.0855 35.0837C58.9069 34.3371 59.6629 33.5437 60.3535 32.7037C60.7829 32.1811 61.1562 31.6677 61.4735 31.1637C61.8095 30.6411 62.1269 30.1464 62.4255 29.6797C62.5375 29.5677 62.6589 29.5024 62.7895 29.4837C62.9389 29.4651 63.0602 29.4931 63.1535 29.5677C63.2469 29.6237 63.3122 29.7171 63.3495 29.8477C63.3869 29.9784 63.3495 30.1184 63.2375 30.2677C62.8642 30.7717 62.4722 31.3224 62.0615 31.9197C61.6695 32.4984 61.2215 33.0957 60.7175 33.7117C60.2322 34.3091 59.6909 34.9251 59.0935 35.5597C58.5149 36.1757 57.8615 36.7824 57.1335 37.3797C56.1629 38.1637 55.2949 38.7611 54.5295 39.1717C53.7829 39.5824 53.1202 39.8718 52.5415 40.0398C51.9629 40.2078 51.4682 40.2918 51.0575 40.2918C50.6655 40.3104 50.3389 40.3198 50.0775 40.3198C49.2935 40.3198 48.6215 40.1891 48.0615 39.9278C47.5202 39.6664 47.0722 39.3117 46.7175 38.8637C46.3815 38.4157 46.1389 37.8931 45.9895 37.2957C45.8402 36.6797 45.7842 36.0171 45.8215 35.3077ZM65.747 22.4557C66.0084 22.3437 66.3257 22.3624 66.699 22.5117C67.0724 22.6611 67.4177 22.8851 67.735 23.1837C68.0524 23.4824 68.295 23.8277 68.463 24.2197C68.631 24.6117 68.6404 24.9851 68.491 25.3397C68.3417 25.6571 68.0617 26.1891 67.651 26.9357C67.259 27.6637 66.811 28.4944 66.307 29.4277C65.8217 30.3611 65.3177 31.3317 64.795 32.3397C64.291 33.3291 63.8524 34.2437 63.479 35.0837C63.1057 35.9051 62.835 36.5771 62.667 37.0997C62.5177 37.6224 62.555 37.8837 62.779 37.8837C63.059 37.8651 63.4604 37.6691 63.983 37.2957C64.5244 36.9037 65.131 36.3997 65.803 35.7837C66.4937 35.1491 67.2217 34.4304 67.987 33.6277C68.771 32.8064 69.5457 31.9571 70.311 31.0797C71.095 30.1837 71.851 29.2877 72.579 28.3917C73.307 27.4957 73.951 26.6557 74.511 25.8717C75.0897 25.0691 75.5564 24.3597 75.911 23.7437C76.2657 23.1091 76.471 22.6237 76.527 22.2877C76.6017 22.1571 76.7044 22.2037 76.835 22.4277C76.9657 22.6331 77.0684 22.9037 77.143 23.2397C77.2364 23.5757 77.2924 23.9211 77.311 24.2757C77.3297 24.6117 77.2737 24.8637 77.143 25.0317C76.6017 25.7224 75.9297 26.5811 75.127 27.6077C74.343 28.6157 73.475 29.6797 72.523 30.7997C71.571 31.9197 70.563 33.0397 69.499 34.1597C68.435 35.2611 67.371 36.2504 66.307 37.1277C65.2617 38.0051 64.235 38.7144 63.227 39.2557C62.2377 39.7971 61.323 40.0678 60.483 40.0678C60.147 40.0678 59.8484 39.9744 59.587 39.7877C59.3257 39.6011 59.139 39.3304 59.027 38.9757C58.915 38.6024 58.887 38.1544 58.943 37.6317C58.999 37.0904 59.1857 36.4744 59.503 35.7837C59.727 35.2611 60.007 34.6544 60.343 33.9637C60.679 33.2544 61.043 32.5077 61.435 31.7237C61.8457 30.9211 62.2564 30.0997 62.667 29.2597C63.0964 28.4011 63.507 27.5611 63.899 26.7397C64.291 25.9184 64.6457 25.1437 64.963 24.4158C65.299 23.6877 65.5604 23.0344 65.747 22.4557ZM61.2215 57.1478C60.9789 57.1478 60.8202 57.0824 60.7455 56.9518C60.6709 56.8398 60.6615 56.7091 60.7175 56.5598C60.7735 56.4291 60.8762 56.2984 61.0255 56.1678C61.1749 56.0371 61.3522 55.9624 61.5575 55.9438C63.1815 55.7758 64.7122 55.3651 66.1495 54.7118C67.5869 54.0584 68.9402 53.2184 70.2095 52.1918C71.4602 51.1651 72.6362 49.9798 73.7375 48.6358C74.8575 47.2918 75.9122 45.8638 76.9015 44.3518C77.8909 42.8398 78.8242 41.2624 79.7015 39.6197C80.5789 37.9771 81.4095 36.3344 82.1935 34.6917C81.6522 35.4011 81.0922 36.0637 80.5135 36.6797C79.9349 37.2957 79.3095 37.8651 78.6375 38.3877C78.4695 38.5184 78.2549 38.6771 77.9935 38.8637C77.7322 39.0317 77.4335 39.1997 77.0975 39.3677C76.7802 39.5171 76.4349 39.6477 76.0615 39.7597C75.6882 39.8531 75.2962 39.8998 74.8855 39.8998C74.4002 39.8811 74.0082 39.7504 73.7095 39.5077C73.4109 39.2464 73.1962 38.9104 73.0655 38.4997C72.9162 38.0891 72.8509 37.6224 72.8695 37.0997C72.8882 36.5584 72.9722 35.9891 73.1215 35.3917C73.3455 34.5517 73.6909 33.5717 74.1575 32.4518C74.6429 31.3131 75.1469 30.1464 75.6695 28.9517C76.2109 27.7571 76.7335 26.5904 77.2375 25.4518C77.7415 24.3131 78.1429 23.3144 78.4415 22.4557C78.7029 22.3437 79.0202 22.3624 79.3935 22.5117C79.7669 22.6611 80.1122 22.8851 80.4295 23.1837C80.7469 23.4824 80.9895 23.8277 81.1575 24.2197C81.3255 24.6117 81.3349 24.9851 81.1855 25.3397C81.0362 25.6571 80.7562 26.1797 80.3455 26.9077C79.9535 27.6171 79.5149 28.4291 79.0295 29.3437C78.5442 30.2584 78.0589 31.2011 77.5735 32.1717C77.0882 33.1424 76.6869 34.0291 76.3695 34.8317C76.0709 35.6344 75.9029 36.3064 75.8655 36.8477C75.8282 37.3704 76.0149 37.6411 76.4255 37.6597H76.8455C77.6295 37.4357 78.3669 37.0437 79.0575 36.4837C79.7669 35.9237 80.4389 35.2797 81.0735 34.5517C81.7082 33.8237 82.2962 33.0584 82.8375 32.2557C83.3975 31.4531 83.9202 30.7064 84.4055 30.0157C85.0589 28.6344 85.6842 27.3184 86.2815 26.0677C86.8789 24.7984 87.4762 23.6317 88.0735 22.5677C88.3349 22.4557 88.6429 22.4744 88.9975 22.6237C89.3709 22.7544 89.6975 22.9691 89.9775 23.2677C90.2762 23.5477 90.4909 23.8837 90.6215 24.2757C90.7522 24.6677 90.7242 25.0411 90.5375 25.3957C89.4549 27.5051 88.3535 29.7264 87.2335 32.0597C86.1135 34.3931 84.9095 36.6984 83.6215 38.9757C82.3522 41.2531 80.9709 43.4371 79.4775 45.5278C77.9842 47.6184 76.3229 49.4851 74.4935 51.1278C72.6829 52.7891 70.6855 54.1518 68.5015 55.2158C66.3175 56.2798 63.8909 56.9238 61.2215 57.1478ZM108.03 33.2917C107.657 33.7957 107.162 34.4304 106.546 35.1957C105.93 35.9424 105.258 36.6704 104.53 37.3797C103.802 38.0704 103.046 38.6677 102.262 39.1717C101.497 39.6571 100.759 39.8998 100.05 39.8998C99.6581 39.8998 99.2754 39.8344 98.9021 39.7037C98.5474 39.5544 98.2394 39.3397 97.9781 39.0597C97.7354 38.7797 97.5488 38.4251 97.4181 37.9958C97.3061 37.5477 97.2874 37.0251 97.3621 36.4277C97.4554 35.8304 97.5861 35.2331 97.7541 34.6357C97.9408 34.0384 98.1741 33.4037 98.4541 32.7317C98.7341 32.0597 99.0608 31.3411 99.4341 30.5757C99.8261 29.7917 100.265 28.9237 100.75 27.9717C101.049 27.3931 101.291 26.8517 101.478 26.3477C101.665 25.8437 101.711 25.4797 101.618 25.2557C101.543 25.0317 101.301 24.9944 100.89 25.1437C100.498 25.2931 99.8728 25.7131 99.0141 26.4037C98.0434 27.1877 97.1754 27.9624 96.4101 28.7277C95.6448 29.4744 94.8608 30.3144 94.0581 31.2477C93.3488 32.5731 92.7421 33.9264 92.2381 35.3077C91.7341 36.6704 91.3608 38.1077 91.1181 39.6197C91.0808 39.7877 90.9408 39.8438 90.6981 39.7877C90.4554 39.7131 90.1941 39.5917 89.9141 39.4237C89.6528 39.2371 89.4101 39.0224 89.1861 38.7797C88.9621 38.5371 88.8501 38.3224 88.8501 38.1357C89.0181 36.7917 89.3261 35.4664 89.7741 34.1597C90.2408 32.8531 90.7634 31.5557 91.3421 30.2677C91.9208 28.9611 92.5181 27.6637 93.1341 26.3757C93.7501 25.0877 94.3008 23.7811 94.7861 22.4557C95.0474 22.3437 95.3648 22.3624 95.7381 22.5117C96.1114 22.6611 96.4568 22.8851 96.7741 23.1837C97.0914 23.4824 97.3341 23.8277 97.5021 24.2197C97.6701 24.6117 97.6794 24.9851 97.5301 25.3397C97.4368 25.5824 97.3248 25.8251 97.1941 26.0677C97.0634 26.2917 96.9234 26.5064 96.7741 26.7117C97.3154 26.1891 97.8754 25.6851 98.4541 25.1997C99.0514 24.6957 99.6488 24.2477 100.246 23.8557C100.862 23.4637 101.478 23.1464 102.094 22.9037C102.729 22.6424 103.354 22.4931 103.97 22.4557C104.25 22.4371 104.53 22.5304 104.81 22.7357C105.09 22.9224 105.323 23.1651 105.51 23.4637C105.715 23.7437 105.855 24.0517 105.93 24.3877C106.005 24.7051 105.977 24.9944 105.846 25.2557C105.137 26.8237 104.493 28.1491 103.914 29.2317C103.335 30.2957 102.822 31.2571 102.374 32.1157C101.945 32.9557 101.581 33.7677 101.282 34.5517C100.983 35.3171 100.75 36.1757 100.582 37.1277C100.582 37.2024 100.582 37.2864 100.582 37.3797C100.601 37.4731 100.647 37.5571 100.722 37.6317C100.815 37.7064 100.937 37.7437 101.086 37.7437C101.235 37.7437 101.45 37.6784 101.73 37.5477C102.439 37.2117 103.289 36.6517 104.278 35.8677C105.267 35.0651 106.294 33.9917 107.358 32.6478C107.75 32.1437 108.105 31.6397 108.422 31.1357C108.758 30.6131 109.094 30.1277 109.43 29.6797C109.505 29.5677 109.598 29.5024 109.71 29.4837C109.841 29.4651 109.953 29.4931 110.046 29.5677C110.158 29.6237 110.223 29.7171 110.242 29.8477C110.261 29.9784 110.214 30.1184 110.102 30.2677L108.03 33.2917Z" fill="#EE404C"/>
</svg>
